<svg xmlns="http://www.w3.org/2000/svg" version="1.1" xmlns:xlink="http://www.w3.org/1999/xlink" viewBox="0 0 200 200"><rect width="200" height="200" fill="url('#gradient')"></rect><defs><linearGradient id="gradient" gradientTransform="rotate(45 0.5 0.5)"><stop offset="0%" stop-color="#0d15f0"></stop><stop offset="100%" stop-color="#04b3e9"></stop></linearGradient></defs><g><g fill="#021015" transform="matrix(2.1360303413400756,0,0,2.1360303413400756,64.70934141815539,115.18655087860435)" stroke="#405865" stroke-width="0.3"><path d="M8.87 0L6.36-5.02L4.50-5.02L4.50 0L1.07 0L1.07-14.22L6.67-14.22Q9.20-14.22 10.63-13.10Q12.05-11.97 12.05-9.92L12.05-9.92Q12.05-8.44 11.45-7.46Q10.85-6.48 9.57-5.88L9.57-5.88L12.54-0.15L12.54 0L8.87 0ZM4.50-11.57L4.50-7.67L6.67-7.67Q7.65-7.67 8.14-8.18Q8.63-8.69 8.63-9.61Q8.63-10.53 8.13-11.05Q7.64-11.57 6.67-11.57L6.67-11.57L4.50-11.57ZM17.77-14.22L17.77 0L14.36 0L14.36-14.22L17.77-14.22ZM23.30-14.22L25.63-9.49L27.95-14.22L31.87-14.22L27.89-7.17L31.97 0L28.02 0L25.63-4.81L23.23 0L19.29 0L23.36-7.17L19.39-14.22L23.30-14.22Z"></path></g></g></svg>